# xmcd
#
# Track frame offsets:
#  150
#  6342
#  24306
#  39179
#  62545
#  82039
#  92474
#  106970
#  121125
#  140541
#  155328
#  170027
#
# Disc length: 2483 seconds
#
# Revision: 0
# Processed by: cddbd v1.5.1PL2 Copyright (c) Steve Scherf et al.
# Submitted via: Collectorz.com_Music_Collector 6.10
#
DISCID=8b09b10c
DTITLE=Jerry Alexander - Radiator
DYEAR=2005
DGENRE=Blues
TTITLE0=Rochester
TTITLE1=Switchyard
TTITLE2=Nine Below Zero
TTITLE3=Memphis
TTITLE4=Breakfast
TTITLE5=Radiator
TTITLE6=Yardsale
TTITLE7=Don't Leave Me Here
TTITLE8=Tribute To Hank Williams
TTITLE9=Reed's Bad
TTITLE10=Henhouse
TTITLE11=Wee Wee Hours
EXTD=
EXTT0=
EXTT1=
EXTT2=
EXTT3=
EXTT4=
EXTT5=
EXTT6=
EXTT7=
EXTT8=
EXTT9=
EXTT10=
EXTT11=
PLAYORDER=
